<!DOCTYPE svg PUBLIC "-//W3C//DTD SVG 20010904//EN" "http://www.w3.org/TR/2001/REC-SVG-20010904/DTD/svg10.dtd">
<svg version="1.0" xmlns="http://www.w3.org/2000/svg" width="1024px" height="1024px" viewBox="0 0 10240 10240" preserveAspectRatio="xMidYMid meet">
<g id="layer101" fill="#135249" stroke="none">
 <path d="M4605 10224 c-153 -18 -331 -44 -385 -55 -25 -5 -90 -18 -145 -29 -259 -50 -601 -153 -864 -259 -1299 -524 -2328 -1553 -2852 -2852 -173 -429 -276 -844 -339 -1369 -29 -240 -29 -840 0 -1080 56 -463 120 -748 261 -1158 304 -886 899 -1722 1644 -2313 574 -455 1217 -776 1912 -954 122 -32 188 -46 388 -85 72 -14 240 -38 390 -55 183 -21 827 -21 1010 0 150 17 318 41 390 55 200 39 266 53 388 85 258 66 458 134 777 266 93 39 405 197 518 263 188 110 400 253 582 394 408 314 843 789 1137 1240 270 412 523 967 639 1399 37 139 53 203 68 278 10 44 21 98 26 120 20 93 32 157 40 222 50 395 50 387 50 783 0 395 -5 468 -54 800 -51 341 -169 770 -305 1109 -320 793 -829 1491 -1485 2035 -590 489 -1263 834 -1993 1021 -122 32 -188 46 -388 85 -72 14 -240 38 -390 55 -171 20 -857 19 -1020 -1z"/>
 </g>
<g id="layer102" fill="#ffffff" stroke="none">
 <path d="M4975 8414 c-62 -10 -172 -47 -239 -80 -297 -149 -474 -429 -481 -763 l-3 -114 -299 -171 c-164 -95 -317 -183 -340 -196 l-41 -24 -44 40 c-146 134 -289 206 -478 239 -108 19 -163 19 -274 -1 -340 -59 -596 -289 -697 -625 -42 -142 -37 -358 13 -502 83 -244 250 -425 483 -526 44 -19 82 -37 85 -42 3 -4 4 -225 2 -492 l-2 -485 -33 -12 c-280 -111 -458 -302 -549 -591 -19 -64 -23 -95 -22 -229 0 -177 11 -232 75 -369 108 -231 297 -392 546 -467 76 -23 108 -27 228 -28 105 0 159 4 215 18 101 25 241 92 322 154 37 29 71 52 76 52 10 0 710 -404 723 -417 5 -5 11 -58 13 -118 14 -392 249 -698 628 -817 64 -20 94 -23 238 -23 145 0 174 3 240 24 377 117 619 435 624 818 1 100 3 113 21 124 11 7 169 98 350 202 182 104 334 193 339 198 18 16 34 9 103 -43 83 -63 222 -129 323 -154 103 -25 306 -25 410 1 300 74 531 295 627 600 25 83 28 103 28 245 0 134 -4 165 -24 230 -79 256 -240 445 -471 552 -47 22 -92 43 -100 48 -13 6 -15 69 -12 491 1 266 7 488 11 492 5 5 42 23 83 41 252 110 421 312 499 601 9 32 14 103 14 200 -1 128 -4 161 -24 225 -103 335 -360 565 -697 624 -112 20 -178 20 -279 1 -185 -35 -326 -104 -458 -225 -30 -27 -58 -50 -61 -50 -6 0 -33 15 -361 205 -93 54 -203 118 -243 141 l-74 42 -3 113 c-4 172 -47 314 -135 452 -88 137 -199 237 -345 310 -126 62 -193 78 -355 82 -80 2 -158 1 -175 -1z m1408 -1576 c64 -38 117 -71 117 -73 0 -2 -4 -15 -9 -28 -15 -39 -41 -202 -41 -256 0 -68 34 -233 65 -310 76 -194 231 -364 420 -459 82 -42 198 -78 270 -84 l30 -3 0 -459 0 -459 -85 -19 c-318 -68 -563 -290 -658 -598 -11 -36 -26 -107 -33 -157 -15 -105 -3 -221 33 -341 35 -116 44 -103 -137 -207 -88 -50 -231 -133 -317 -183 l-158 -91 -32 47 c-56 83 -121 153 -193 209 -322 253 -781 245 -1094 -19 -41 -35 -95 -90 -120 -124 -25 -33 -55 -72 -66 -87 l-20 -26 -120 71 c-66 39 -205 120 -310 180 -104 60 -194 114 -199 119 -6 6 -2 35 12 78 27 82 52 218 52 278 0 24 -7 84 -16 135 -65 375 -342 658 -705 720 l-69 12 0 458 0 458 28 5 c131 26 196 47 285 91 165 83 318 242 390 406 49 111 86 267 87 365 0 49 -27 213 -41 251 -7 18 -6 29 3 37 13 12 475 279 561 325 l49 25 16 -25 c97 -142 204 -243 330 -308 105 -55 185 -80 308 -97 91 -13 117 -13 208 0 269 37 472 163 624 387 l32 46 192 -110 c106 -61 246 -142 311 -180z"/>
 </g>

</svg>